<?xml version="1.0" standalone="no"?>
<!DOCTYPE svg PUBLIC "-//W3C//DTD SVG 20010904//EN"
 "http://www.w3.org/TR/2001/REC-SVG-20010904/DTD/svg10.dtd">
<svg version="1.0" xmlns="http://www.w3.org/2000/svg"
 width="512.000000pt" height="512.000000pt" viewBox="0 0 512.000000 512.000000"
 preserveAspectRatio="xMidYMid meet">
<metadata>
Created by potrace 1.14, written by Peter Selinger 2001-2017
</metadata>
<g transform="translate(0.000000,512.000000) scale(0.100000,-0.100000)"
fill="#000000" stroke="none">
<path d="M2410 5013 c-117 -18 -281 -75 -375 -131 -143 -85 -236 -172 -359
-337 -148 -199 -355 -478 -423 -570 -36 -49 -78 -117 -94 -150 -73 -161 -71
-354 7 -510 27 -54 53 -90 459 -639 74 -100 93 -131 82 -138 -8 -4 -157 -8
-331 -8 -339 -1 -370 -5 -458 -55 -84 -48 -169 -154 -196 -247 -3 -13 -6 -124
-7 -248 l0 -225 -49 -75 c-68 -102 -157 -274 -210 -406 -101 -251 -200 -624
-199 -751 2 -189 121 -347 304 -404 60 -19 120 -19 1998 -19 1749 0 1941 1
1991 16 192 56 322 234 314 430 -5 127 -131 572 -218 774 -52 118 -134 272
-195 364 l-52 79 7 201 c5 174 4 209 -11 261 -42 142 -132 237 -273 284 -52
18 -88 20 -376 21 -205 0 -324 4 -332 11 -10 8 46 89 230 337 293 396 296 400
329 483 62 156 55 327 -21 479 -20 42 -307 444 -385 540 -7 8 -49 65 -94 127
-160 218 -241 294 -425 396 -49 27 -200 84 -246 92 -15 2 -49 9 -77 14 -48 9
-263 12 -315 4z"/>
</g>
</svg>
